<svg width="24" height="24" viewBox="0 0 24 24" fill="none" xmlns="http://www.w3.org/2000/svg">
<rect width="24" height="24" rx="12" fill="#FBF6E9"/>
<path d="M15.0884 17.1892C14.2063 17.7276 13.1749 18 12.0009 18C9.45816 18 7.14897 16.4692 6.33816 14.0562C4.95005 9.87243 8.02465 6 12.0009 6C15.3155 6 18.0009 8.68541 18.0009 12C18.0009 13.9135 16.3338 14.9189 14.9198 14.7568C14.3295 14.6854 13.7846 14.1016 13.8625 13.5114L14.3425 9.65838" stroke="#6E6856" stroke-width="1.5" stroke-linecap="round" stroke-linejoin="round"/>
<path d="M13.7846 13.7838C13.7846 13.7838 13.2981 14.5946 12.0008 14.5946C10.7035 14.5946 9.69165 13.7124 9.78894 12.0324C9.89273 10.2162 11.1057 9.56757 12.0008 9.56757C13.2138 9.56757 14.2516 10.3849 14.1284 11.3838" stroke="#6E6856" stroke-width="1.5" stroke-linecap="round" stroke-linejoin="round"/>
</svg>
