<svg width="24" height="24" viewBox="0 0 24 24" fill="none" xmlns="http://www.w3.org/2000/svg">
<rect width="24" height="24" rx="12" fill="url(#paint0_radial_56_255)"/>
<path d="M9.50089 12C9.50089 10.6193 10.6198 9.4998 12.0005 9.4998C13.3811 9.4998 14.5007 10.6193 14.5007 12C14.5007 13.3807 13.3811 14.5002 12.0005 14.5002C10.6198 14.5002 9.50089 13.3807 9.50089 12M8.14933 12C8.14933 14.127 9.87349 15.8512 12.0005 15.8512C14.1275 15.8512 15.8516 14.127 15.8516 12C15.8516 9.873 14.1275 8.14884 12.0005 8.14884C9.87349 8.14884 8.14939 9.87288 8.14939 12M15.1042 7.99614C15.1041 8.17414 15.1568 8.34817 15.2556 8.49621C15.3545 8.64426 15.495 8.75967 15.6594 8.82785C15.8238 8.89604 16.0048 8.91393 16.1794 8.87928C16.354 8.84462 16.5144 8.75897 16.6403 8.63315C16.7662 8.50733 16.852 8.347 16.8868 8.17243C16.9216 7.99787 16.9039 7.8169 16.8358 7.65242C16.7677 7.48794 16.6524 7.34733 16.5045 7.24838C16.3565 7.14942 16.1825 7.09657 16.0045 7.0965H16.0042C15.7656 7.09661 15.5368 7.19142 15.368 7.3601C15.1993 7.52878 15.1044 7.75754 15.1042 7.99614M8.97049 18.1049C8.23927 18.0716 7.84183 17.9498 7.57771 17.8469C7.22755 17.7106 6.97771 17.5482 6.71503 17.2859C6.45235 17.0236 6.28975 16.774 6.15403 16.4238C6.05107 16.1598 5.92927 15.7622 5.89603 15.031C5.85967 14.2405 5.85241 14.003 5.85241 12.0001C5.85241 9.99726 5.86027 9.76044 5.89603 8.96922C5.92933 8.238 6.05203 7.84122 6.15403 7.57644C6.29035 7.22628 6.45271 6.97644 6.71503 6.71376C6.97735 6.45108 7.22695 6.28848 7.57771 6.15276C7.84171 6.0498 8.23927 5.928 8.97049 5.89476C9.76105 5.8584 9.99853 5.85114 12.0005 5.85114C14.0024 5.85114 14.2402 5.85888 15.0314 5.89488C15.7626 5.92818 16.1594 6.05088 16.4242 6.15288C16.7743 6.2886 17.0242 6.45156 17.2868 6.71388C17.5495 6.9762 17.7115 7.2264 17.8478 7.57656C17.9508 7.84056 18.0726 8.23812 18.1058 8.96934C18.1422 9.76056 18.1495 9.99738 18.1495 12.0002C18.1495 14.0031 18.1422 14.2399 18.1058 15.0311C18.0725 15.7624 17.9501 16.1598 17.8478 16.4239C17.7115 16.7741 17.5492 17.0239 17.2868 17.286C17.0245 17.5481 16.7743 17.7107 16.4242 17.847C16.1602 17.95 15.7626 18.0718 15.0314 18.105C14.2408 18.1414 14.0033 18.1486 12.0005 18.1486C9.99763 18.1486 9.76081 18.1414 8.97049 18.105M8.90839 4.54542C8.10997 4.58178 7.56439 4.70838 7.08793 4.89378C6.59479 5.08524 6.17677 5.3421 5.75935 5.75886C5.34193 6.17562 5.08573 6.5937 4.89427 7.08744C4.70887 7.5642 4.58227 8.10948 4.54591 8.9079C4.50895 9.70758 4.50049 9.96324 4.50049 12C4.50049 14.0368 4.50895 14.2924 4.54591 15.0921C4.58227 15.8906 4.70887 16.4358 4.89427 16.9126C5.08573 17.4057 5.34199 17.8246 5.75935 18.2411C6.17671 18.6577 6.59419 18.9142 7.08793 19.1062C7.56529 19.2916 8.10997 19.4182 8.90839 19.4546C9.70849 19.4909 9.96373 19.5 12.0005 19.5C14.0372 19.5 14.2929 19.4915 15.0926 19.4546C15.8911 19.4182 16.4363 19.2916 16.913 19.1062C17.4062 18.9142 17.8242 18.6579 18.2416 18.2411C18.659 17.8244 18.9147 17.4057 19.1067 16.9126C19.2921 16.4358 19.4193 15.8905 19.4551 15.0921C19.4914 14.2918 19.4999 14.0368 19.4999 12C19.4999 9.96324 19.4914 9.70758 19.4551 8.9079C19.4187 8.10942 19.2921 7.5639 19.1067 7.08744C18.9147 6.5943 18.6584 6.17628 18.2416 5.75886C17.8249 5.34144 17.4062 5.08524 16.9136 4.89378C16.4363 4.70838 15.891 4.58118 15.0932 4.54542C14.2934 4.50888 14.0378 4.5 12.0014 4.5C9.96493 4.5 9.70879 4.50846 8.90869 4.54542" fill="white"/>
<defs>
<radialGradient id="paint0_radial_56_255" cx="0" cy="0" r="1" gradientUnits="userSpaceOnUse" gradientTransform="translate(1.55326 23.4742) scale(30.4711)">
<stop offset="0.09" stop-color="#FA8F21"/>
<stop offset="0.78" stop-color="#D82D7E"/>
</radialGradient>
</defs>
</svg>
