<svg width="264" height="208" viewBox="0 0 264 208" fill="none" xmlns="http://www.w3.org/2000/svg">
<ellipse cx="26.7505" cy="160.206" rx="16.5116" ry="24.767" transform="rotate(-27.8431 26.7505 160.206)" fill="#D7D7D7"/>
<path d="M26.406 166.781C26.1026 167.732 25.5365 168.48 24.7277 168.864C24.0199 169.208 23.211 169.248 22.3819 169.046C20.3597 168.52 18.1961 166.539 16.7806 163.708C15.4864 161.038 15.1628 158.308 15.8099 156.408C16.1132 155.437 16.6794 154.669 17.5085 154.264C18.2163 153.9 19.0453 153.88 19.8947 154.102C21.8966 154.648 24.0603 156.63 25.4556 159.421C26.77 162.11 27.0733 164.88 26.406 166.781Z" fill="#8B766B"/>
<path d="M134.732 104.903L27.7193 165.042L24.2413 167.004C22.5022 166.559 20.6216 164.84 19.388 162.393C18.2556 160.088 17.9928 157.722 18.5388 156.084L22.0573 154.082L128.645 94.1855L131.658 99.5443L134.671 104.903H134.732Z" fill="#B1ADA2"/>
<path d="M143.609 183.531C170.579 170.196 177.692 129.552 159.495 92.751C141.299 55.9499 104.685 36.9272 77.7146 50.2625C50.7445 63.5978 43.6318 104.241 61.828 141.042C80.0243 177.844 116.639 196.866 143.609 183.531Z" fill="#FF5152"/>
<path d="M185.004 114.184L177.38 118.411L177.057 118.572L139.95 139.158L139.91 139.097C128.667 144.658 112.348 135.943 103.086 119.219C93.7843 102.496 95.0583 84.0339 105.715 77.4416V77.381L142.923 56.7347L150.445 52.569L151.982 51.7197C151.517 54.2474 151.295 56.8965 151.295 59.6264C151.295 69.8787 154.469 81.1826 161.001 91.617C167.411 101.89 175.965 109.634 185.004 114.184Z" fill="#D61E1B"/>
<path d="M236.891 42.3386C222.312 18.9624 196.61 8.6898 179.482 19.3668C178.896 19.7308 178.35 20.115 177.804 20.4992L163.871 31.156C148.381 42.6014 146.946 69.0917 161.02 91.6388C175.6 115.015 201.301 125.288 218.429 114.611C219.784 113.761 221.017 112.811 222.17 111.78L233.656 103.084C233.979 102.862 234.283 102.619 234.606 102.377L234.991 102.093C249.591 90.284 250.683 64.4206 236.912 42.3588L236.891 42.3386Z" fill="#D61E1B"/>
<path d="M232.323 104.09C249.454 93.4019 251.519 65.788 236.935 42.4127C222.351 19.0373 196.641 8.75234 179.51 19.4405C162.379 30.1286 160.314 57.7424 174.898 81.1177C189.481 104.493 215.191 114.778 232.323 104.09Z" fill="#FF5152"/>
</svg>
