<svg xmlns="http://www.w3.org/2000/svg"
     viewBox="0 0 1501 691"
     preserveAspectRatio="none">
  <path d="M1500.56 674.09V0.194336H0.564941V676.742L13.4989 674.56C41.778 669.681 98.868 660.238 155.214 664.96C180.474 667.064 205.819 672.073 231.144 677.078L231.146 677.078C262.631 683.301 294.087 689.517 325.314 690.14C359.498 690.818 393.838 685.032 428.075 679.264L428.077 679.263C450.591 675.47 473.061 671.684 495.414 669.748C547.254 665.367 599.45 671.016 651.106 676.606C655.914 677.126 660.717 677.646 665.515 678.157C722.18 684.07 779.269 689.016 835.615 684.137C859.502 682.119 883.465 678.394 907.415 674.671L907.418 674.671C940.282 669.562 973.123 664.458 1005.72 663.768C1047.17 662.831 1088.85 669.076 1130.3 675.287C1145.51 677.566 1160.69 679.841 1175.82 681.754C1232.48 689.016 1289.57 691.264 1345.92 688.948C1402.58 686.543 1459.67 679.348 1487.31 675.751L1500.56 674.09Z"
        fill="#ffffff"/>
</svg>