<svg width="301" height="300" viewBox="0 0 301 300" fill="none" xmlns="http://www.w3.org/2000/svg">
<path d="M65.961 122.333C64.4729 130.188 62.4898 137.934 61.2959 145.821C59.9751 154.556 59.866 163.464 57.8343 172.085C53.7659 189.351 50.0235 206.452 46.7105 223.936C45.6641 229.462 44.7822 235.753 48.2018 240.213C50.659 243.423 54.7511 244.833 58.6294 245.969C62.9071 247.226 67.2257 248.343 71.5647 249.357C96.2714 255.113 121.603 256.338 146.431 260.951C158.912 263.395 171.451 265.596 183.957 267.919C190.275 269.093 196.592 270.267 202.915 271.441C208.651 272.507 214.496 274.115 220.252 274.836C223.646 275.257 227.341 274.97 230.104 272.756C231.437 271.684 232.446 270.242 233.192 268.698C235.611 263.689 234.609 258.246 235.891 253.02C237.563 246.186 238.208 239.122 239.26 232.173C240.492 224.057 241.762 215.902 242.968 207.818C243.944 201.507 245.01 195.203 246.158 188.917C248.462 176.354 251.116 163.847 254.122 151.43C254.721 148.941 255.328 146.255 254.37 143.875C252.794 139.951 247.919 138.757 243.74 138.094C192.31 129.901 140.887 121.708 89.4567 113.515C85.0092 112.813 79.7003 110.031 75.2975 110.26C68.789 110.605 66.9768 116.973 65.961 122.333Z" fill="#161179"/>
<path d="M161.401 124.981C154.682 133.378 148.065 141.859 141.537 150.415C134.199 149.165 126.855 147.908 119.504 146.657C125.189 137.52 131.959 129.058 139.629 121.51C146.891 122.665 154.146 123.82 161.401 124.981Z" fill="#D61E1B"/>
<path d="M166.027 125.715C159.148 133.863 152.748 142.426 146.859 151.321C145.091 151.021 143.317 150.722 141.537 150.415C148.065 141.858 154.682 133.378 161.401 124.981C162.945 125.224 164.489 125.472 166.027 125.715Z" fill="#161179"/>
<path d="M189.86 129.512C183.696 138.183 177.539 146.842 171.375 155.507C163.201 154.116 155.033 152.725 146.859 151.321C152.749 142.427 159.149 133.863 166.028 125.715C173.978 126.979 181.922 128.242 189.86 129.512Z" fill="#D61E1B"/>
<path d="M193.612 130.111C187.161 138.553 181.036 147.25 175.267 156.177C173.972 155.954 172.677 155.731 171.375 155.507C177.539 146.842 183.696 138.183 189.86 129.512C191.117 129.709 192.368 129.914 193.612 130.111Z" fill="#161179"/>
<path d="M216.277 133.717C210.304 142.516 204.325 151.315 198.359 160.114C190.664 158.8 182.968 157.485 175.267 156.177C181.035 147.25 187.161 138.553 193.612 130.111C201.173 131.311 208.722 132.511 216.277 133.717Z" fill="#D61E1B"/>
<path d="M221.337 134.527C215.09 143.294 208.843 152.068 202.596 160.835C201.186 160.599 199.776 160.357 198.359 160.114C204.325 151.315 210.304 142.516 216.277 133.716C217.968 133.984 219.652 134.253 221.337 134.527Z" fill="#161179"/>
<path d="M244.213 138.177C237.66 146.976 231.1 155.775 224.541 164.581C217.228 163.337 209.916 162.086 202.597 160.835C208.844 152.068 215.09 143.294 221.337 134.527C228.809 135.72 236.275 136.901 243.741 138.094C243.894 138.119 244.053 138.145 244.213 138.177Z" fill="#D61E1B"/>
<path d="M254.116 151.43C252.719 157.217 251.398 163.024 250.154 168.843C249.178 168.773 248.195 168.614 247.231 168.454C239.664 167.165 232.109 165.87 224.541 164.581C231.101 155.775 237.66 146.976 244.213 138.177C248.278 138.853 252.853 140.097 254.372 143.875C255.329 146.255 254.716 148.941 254.116 151.43Z" fill="#161179"/>
<path d="M133.543 214.62C126.518 213.235 119.525 211.659 112.48 210.351C114.165 206.082 114.273 201.488 115.032 197.002C115.913 191.808 116.404 186.55 117.349 181.369C122.6 181.752 127.858 182.16 133.046 183.136C152.169 186.735 171.395 189.792 190.416 193.926C190.371 194.054 190.333 194.175 190.308 194.316C189.446 199.401 188.999 204.551 188.055 209.623C187.589 212.112 187.06 214.588 186.6 217.076C186.115 219.692 186.211 222.366 185.554 224.95C185.503 225.142 185.477 225.327 185.471 225.499C178.828 224.127 172.192 222.71 165.563 221.294C154.9 219.016 144.238 216.732 133.543 214.62ZM229.85 233.749C219.277 231.695 208.633 230.048 198.06 228.019C195.4 227.509 192.745 226.979 190.084 226.443C190.333 226.143 190.531 225.786 190.646 225.365C191.258 222.947 191.188 220.464 191.584 218.014C192.018 215.347 192.649 212.699 193.141 210.038C194.066 205.061 194.519 200.014 195.349 195.03C196.286 195.241 197.231 195.458 198.169 195.675C203.95 197.04 209.82 197.985 215.659 199.082C221.363 200.154 227.31 199.439 232.932 200.952C235.988 201.775 238.081 197.028 234.872 196.16C230.118 194.884 225.3 195.03 220.432 194.609C215.116 194.143 209.737 192.867 204.505 191.833C193.651 189.689 182.925 187.01 172.033 185C161.141 182.996 150.21 181.184 139.324 179.148C133.977 178.146 128.694 177.164 123.27 176.685C117.917 176.213 112.55 175.971 107.216 175.352C94.8625 173.916 82.8345 170.253 70.5258 168.441C67.3417 167.975 66.5378 173.016 69.8558 173.501C80.5502 175.077 90.9893 177.866 101.633 179.71C105.155 180.322 108.696 180.686 112.257 180.98C111.383 185.81 110.981 190.71 110.132 195.554C109.334 200.097 109.347 204.946 107.503 209.228C107.471 209.311 107.439 209.387 107.414 209.464C105.659 209.17 103.898 208.902 102.137 208.666C96.1769 207.875 90.2682 207.186 84.3659 206.005C78.2849 204.787 72.2486 203.37 66.1677 202.164C63.0181 201.539 62.2281 206.573 65.497 207.224C75.9942 209.304 86.3886 212.016 97.0447 213.209C107.656 214.39 118.038 216.681 128.483 218.805C149.974 223.183 171.395 227.917 192.905 232.199C204.964 234.598 217.114 236.468 229.18 238.816C232.332 239.428 233.123 234.388 229.85 233.749Z" fill="white"/>
<path d="M225.256 255.904C220.151 254.838 215.257 252.962 210.21 251.686C205.137 250.404 200.032 249.229 194.902 248.202C184.405 246.09 173.813 244.533 163.234 242.951C152.201 241.298 141.545 238.005 130.659 235.645C120.475 233.437 110.119 232.831 99.8204 231.376C93.7586 230.521 87.6713 229.544 81.6349 228.524C75.5476 227.49 69.6517 225.442 63.6001 224.21C60.4543 223.566 59.6656 228.606 62.9281 229.27C68.2543 230.355 73.4228 232.084 78.7444 233.169C84.0469 234.247 89.4579 234.809 94.7923 235.747C105.142 237.578 115.696 237.903 126.02 239.888C136.798 241.955 147.281 245.312 158.084 247.277C168.613 249.198 179.262 250.442 189.791 252.407C195.993 253.562 202.151 254.934 208.263 256.478C213.745 257.863 219.047 259.809 224.586 260.964C227.725 261.615 228.516 256.58 225.256 255.904Z" fill="white"/>
<path d="M147.567 83.467C146.916 83.6329 146.253 83.7861 145.589 83.9329C145.238 84.0031 144.881 84.0796 144.53 84.1562C133.51 86.549 122.879 89.5034 111.943 92.445C106.379 93.9381 100.821 95.4311 95.2631 96.9307C92.4746 97.6772 89.6989 98.4239 86.9233 99.1768C85.4684 99.5597 84.0263 99.9552 82.5778 100.338C81.5505 100.619 79.7894 100.734 78.9153 101.327C76.5479 101.959 74.0402 102.591 71.6984 101.921C66.3194 100.37 66.0124 94.5697 64.9934 90.0712C64.1913 86.5426 60.7113 80.4106 63.8481 77.1117C65.4701 75.3952 69.2099 74.4062 71.3411 73.43C74.0211 72.2048 76.7202 71.018 79.4385 69.8886C87.7655 66.4174 96.8774 64.4265 105.549 61.8933C108.382 61.0638 111.209 60.2343 114.036 59.4047L125.106 56.1697C133.606 64.2096 140.044 74.3806 147.567 83.467Z" fill="#161179"/>
<path d="M139.63 121.51C131.96 129.059 125.19 137.52 119.504 146.657C117.003 146.236 114.502 145.802 112 145.374C104.184 144.047 96.3609 142.714 88.5507 141.297C81.6913 140.046 74.8446 138.738 68.0234 137.303C66.4601 136.984 64.8929 136.588 63.3232 136.256L65.9636 122.333C66.9769 116.973 68.7891 110.605 75.2912 110.267C79.7004 110.031 85.0093 112.813 89.4568 113.515C106.181 116.176 122.905 118.849 139.63 121.51Z" fill="#161179"/>
<path d="M171.043 75.6507C163.15 78.0116 155.582 81.4828 147.568 83.4673C140.045 74.3809 133.607 64.2099 125.107 56.17L125.356 56.0998C131.603 54.2621 137.844 53.273 144.263 52.1372C144.339 52.118 144.422 52.1053 144.499 52.0926C145.82 51.8629 147.128 51.5949 148.442 51.3205C155.978 59.4306 163.514 67.5406 171.043 75.6507Z" fill="#D61E1B"/>
<path d="M199.488 68.8614C192.029 70.7885 184.563 72.6005 177.053 74.1192C176.817 74.1702 176.574 74.2213 176.332 74.2787C175.962 74.3553 175.585 74.4383 175.215 74.5276C167.705 66.5834 160.361 58.4733 153.188 50.2101C160.66 48.3533 167.992 45.9221 175.298 43.4783C183.364 51.9393 191.429 60.394 199.488 68.8614Z" fill="#D61E1B"/>
<path d="M202.839 67.9807C201.716 68.2742 200.612 68.5678 199.495 68.8613C191.43 60.3939 183.364 51.9392 175.299 43.4782C176.16 43.1846 177.009 42.9039 177.864 42.6167C178.483 42.4125 179.102 42.2019 179.714 41.9914C186.963 51.0522 194.69 59.7302 202.839 67.9807Z" fill="#161179"/>
<path d="M223.232 61.9444C219.512 63.1759 215.875 64.4967 212.028 65.5304C211.849 65.5815 211.664 65.6326 211.479 65.6836C209.258 66.2834 207.044 66.8705 204.824 67.4575C204.16 67.6362 203.503 67.8084 202.839 67.9807C194.691 59.7302 186.964 51.0522 179.715 41.9914C180.181 41.8446 180.646 41.6851 181.112 41.532C181.98 41.2448 182.848 40.9769 183.716 40.7217C189.101 39.1456 194.512 38.0927 199.776 36.1274C200.07 36.0253 200.357 35.9105 200.65 35.8147C208.18 44.5246 215.703 53.2409 223.232 61.9444Z" fill="#D61E1B"/>
<path d="M247.358 53.7068C246.892 53.9174 246.414 54.1215 245.942 54.3065C243.676 55.2126 241.398 56.0869 239.101 56.9036C235.483 58.1925 231.834 59.3603 228.139 60.4067C219.895 52.1244 212.008 43.4782 204.523 34.4875C207.286 33.6006 210.088 32.7967 212.895 32.0182C216.449 31.0228 220.016 30.0784 223.519 29.0447C230.825 37.8631 238.801 46.1136 247.358 53.7068Z" fill="#D61E1B"/>
<path d="M251.717 50.2865C250.772 51.9137 249.107 52.9219 247.358 53.7068C238.802 46.1135 230.826 37.8631 223.52 29.0447C223.711 28.9937 223.896 28.9426 224.087 28.8852C228.93 27.4367 233.901 26.3455 238.846 25.3054C240.174 25.0246 241.597 24.7886 242.86 25.3054C245.974 26.5688 247.256 31.4247 248.552 34.1748C250.651 38.5968 254.633 45.3095 251.717 50.2865Z" fill="#161179"/>
<path d="M228.139 60.4066C228.101 60.4193 228.069 60.4321 228.037 60.4385C226.404 60.9107 224.808 61.4147 223.232 61.9443C215.703 53.2408 208.18 44.5245 200.65 35.8146C201.933 35.3488 203.222 34.9085 204.524 34.4874C212.008 43.478 219.895 52.1242 228.139 60.4066Z" fill="#161179"/>
<path d="M175.216 74.5274C174.156 74.7762 173.104 75.0507 172.063 75.3442C171.725 75.4463 171.381 75.5483 171.042 75.6504C163.513 67.5403 155.977 59.4303 148.441 51.3202C148.473 51.3138 148.505 51.301 148.537 51.2946C150.094 50.9628 151.645 50.5991 153.189 50.2099C160.361 58.4731 167.705 66.5832 175.216 74.5274Z" fill="#161179"/>
<path d="M80.7079 79.0323C78.6724 79.7725 76.7772 81.1635 75.9094 83.1479C74.9842 85.26 75.3351 87.6784 75.5585 89.9755C76.7517 102.24 73.6761 114.484 73.2103 126.793C73.1338 128.797 73.1848 130.973 74.4163 132.555C75.5458 134.004 77.4281 134.623 79.2084 135.101C90.7131 138.202 102.735 138.751 114.648 139.281C116.473 139.357 118.438 139.402 119.95 138.381C121.979 137.022 122.471 134.284 122.586 131.847C123.281 117.126 116.741 103.018 108.841 90.5817C106.838 87.4231 104.668 84.2519 101.592 82.1143C96.2453 78.3942 86.9228 76.7734 80.7079 79.0323Z" fill="#D61E1B"/>
<path d="M88.3854 87.4808C88.5768 86.613 88.4364 85.6877 87.8749 84.8965C86.9369 83.5948 85.2587 83.1992 83.7592 82.9822C82.5724 82.81 81.5323 83.6841 81.0474 84.6732C80.1859 86.4088 80.505 88.5144 82.03 89.7523C83.3636 90.8371 85.297 90.8244 86.7901 90.1098C87.7537 89.6503 88.4683 88.5591 88.3854 87.4808Z" fill="#161179"/>
<path d="M84.3467 126.627C84.3786 126.627 84.3977 126.627 84.4233 126.627C84.4041 126.621 84.385 126.621 84.3595 126.621C84.3531 126.621 84.3531 126.621 84.3467 126.627Z" fill="#161179"/>
<path d="M86.8534 122.161C85.2007 121.203 83.0823 121.408 81.5573 122.543C80.5618 123.277 80.0067 124.445 80.1024 125.683C80.1918 126.825 81.0341 127.827 81.9912 128.382C82.0997 128.446 82.2145 128.49 82.323 128.542C82.3549 128.561 82.3868 128.586 82.4123 128.605C84.1096 129.69 86.6301 129.562 87.8616 127.808C89.0867 126.066 88.7996 123.277 86.8534 122.161Z" fill="#161179"/>
<path d="M116.812 128.893C116.633 126.749 114.866 125.262 112.728 125.543C111.522 125.696 110.399 126.404 109.621 127.361C109.25 127.693 108.97 128.121 108.88 128.612C108.095 130.628 109.327 132.702 111.388 133.276C111.892 133.417 112.435 133.417 112.939 133.289C115.274 133.251 117.01 131.26 116.812 128.893Z" fill="#161179"/>
<path d="M113.411 130.545C113.405 130.552 113.392 130.558 113.386 130.564C113.411 130.558 113.418 130.552 113.43 130.545C113.424 130.545 113.418 130.545 113.411 130.545Z" fill="#161179"/>
</svg>
