<svg width="300" height="300" viewBox="0 0 300 300" fill="none" xmlns="http://www.w3.org/2000/svg">
<path d="M244.42 51.1423C230.48 109.62 199.773 162.549 199.773 162.549L181.597 185.83C176.167 203.436 174.487 240.89 176.816 256.568C177.04 258.07 186.031 261.994 185.892 262.002C189.267 281.516 194.208 290.608 194.208 290.608H235.361C226.492 250.919 211.278 220.136 218.94 193.939C222.569 169.856 251.714 155.127 272.232 120.286C273.013 118.961 270.274 116.252 269.355 113.594C276.793 100.473 284.181 86.0515 289.602 68.8501C289.796 64.0276 244.808 46.881 244.42 51.1423Z" fill="#D61E1B"/>
<path d="M226.812 257.614L185.92 262.158C189.295 281.567 194.206 290.608 194.206 290.608H235.36C232.423 277.461 229.381 266.981 226.812 257.614Z" fill="#D1BADC"/>
<path d="M244.418 51.1423C240.575 67.2679 235.423 83.2121 229.98 97.8609L269.514 113.303C276.893 100.253 284.218 85.925 289.601 68.8501C289.795 64.0276 244.806 46.881 244.418 51.1423Z" fill="#D1BADC"/>
<path d="M202.332 265.217L210.771 273.677L202.784 280.972L194.244 272.66L202.332 265.217ZM220.213 283.14L212.551 290.477L203.514 281.681L211.492 274.398L220.213 283.14ZM219.922 266.694L228.234 275.466L220.947 282.44L212.239 273.711L219.922 266.694ZM186.456 265.078C186.57 265.673 186.684 266.26 186.802 266.833L192.768 272.639L188.992 276.111C189.093 276.487 189.194 276.85 189.295 277.212L193.493 273.348L202.033 281.659L193.599 289.359C193.797 289.794 193.953 290.11 194.059 290.317L202.763 282.368L211.231 290.608H213.884L220.93 283.862L227.664 290.608H229.099L221.665 283.157L228.93 276.204L232.951 280.444C232.782 279.765 232.613 279.094 232.44 278.432L229.664 275.5L231.28 273.955C231.179 273.58 231.082 273.2 230.985 272.833L228.968 274.761L220.673 266.011L227.424 259.842C227.322 259.475 227.221 259.108 227.12 258.745L219.977 265.272L214.062 259.032L212.796 259.171L219.226 265.956L211.522 272.989L203.083 264.53L208.374 259.665L206.666 259.855L202.366 263.808L199.24 260.678L197.949 260.821L201.615 264.5L193.514 271.951L186.456 265.078Z" fill="#161179"/>
<path d="M248.042 74.1789L260.75 67.0949L267.91 82.0518L255.455 89.0724L248.042 74.1789ZM273.079 60.2262L281.036 74.6599L268.801 81.554L261.641 66.6013L273.079 60.2262ZM274.783 96.4096L262.539 103.291L255.911 89.9796L268.349 82.9716L274.783 96.4096ZM235.798 81.2839C235.647 81.7438 235.49 82.2037 235.339 82.6678L242.064 96.6163L235.815 100.139L237.039 100.616L242.507 97.536L245.604 103.962L246.992 104.506L243.393 97.034L255.025 90.4817L261.653 103.789L254.89 107.59L256.109 108.067L262.105 104.7L265.636 111.788L267.045 112.337L262.991 104.198L275.222 97.3251L276.589 100.19C276.783 99.8102 276.977 99.4263 277.171 99.0423L276.108 96.8273L279.087 95.1522C279.34 94.629 279.593 94.0932 279.842 93.5658L275.669 95.9075L269.239 82.4737L281.526 75.5501L284.973 81.7986C285.137 81.3936 285.297 80.9843 285.458 80.5751L282.412 75.048L288.749 71.4786C288.905 71.0061 289.057 70.5294 289.213 70.0526L281.922 74.1578L273.969 59.7325L274.361 59.509C273.644 59.1967 272.91 58.8888 272.172 58.5765L272.589 59.336L261.202 65.6815L254.797 52.2984C254.35 52.1676 253.915 52.041 253.489 51.9229L260.312 66.1794L247.587 73.2676L241.752 61.551C241.617 62.0405 241.486 62.534 241.351 63.0235L246.701 73.7655L236.372 79.5203C236.22 79.9928 236.069 80.4654 235.912 80.938L247.152 74.6726L254.569 89.5703L242.95 96.1184L235.798 81.2839Z" fill="#161179"/>
<path fill-rule="evenodd" clip-rule="evenodd" d="M203.083 264.53L211.522 272.989L219.226 265.956L212.796 259.171L214.062 259.032L219.977 265.272L227.12 258.745C227.18 258.96 227.24 259.177 227.3 259.394C227.341 259.543 227.382 259.693 227.424 259.842L220.673 266.011L228.968 274.761L230.985 272.833C231.022 272.974 231.059 273.116 231.096 273.259C231.117 273.338 231.138 273.418 231.158 273.497C231.198 273.65 231.239 273.803 231.28 273.955L229.664 275.5L232.44 278.432C232.512 278.706 232.583 278.981 232.653 279.258C232.753 279.651 232.852 280.046 232.951 280.444L228.93 276.204L221.665 283.157L229.099 290.608H227.664L220.93 283.862L213.884 290.608H211.231L202.763 282.368L194.059 290.317C193.989 290.18 193.896 289.993 193.783 289.756C193.727 289.637 193.665 289.505 193.599 289.359L202.033 281.659L193.493 273.348L189.295 277.212C189.235 276.997 189.175 276.781 189.115 276.563C189.074 276.414 189.033 276.264 188.992 276.111L192.768 272.639L186.802 266.833C186.753 266.595 186.704 266.354 186.656 266.111C186.589 265.77 186.522 265.426 186.456 265.078L193.514 271.951L201.615 264.5L197.949 260.821L199.24 260.678L202.366 263.808L206.666 259.855L208.374 259.665L203.083 264.53ZM202.384 262.977L206.404 259.28L210.129 258.866L203.95 264.548L211.541 272.159L218.37 265.925L211.529 258.707L214.292 258.403L220.007 264.432L227.436 257.644L227.698 258.584C227.799 258.948 227.901 259.316 228.002 259.683L228.1 260.037L221.529 266.041L228.989 273.911L231.305 271.697L231.565 272.68C231.603 272.824 231.641 272.968 231.678 273.112C231.738 273.341 231.797 273.569 231.859 273.799L231.952 274.143L230.51 275.521L232.982 278.131L233.021 278.28C233.195 278.946 233.364 279.619 233.533 280.3L234.082 282.509L228.909 277.054L222.522 283.167L230.545 291.208H227.415L220.921 284.702L214.125 291.208H212.656L212.548 291.311L212.442 291.208H210.987L202.75 283.193L193.882 291.291L193.524 290.59C193.415 290.376 193.255 290.051 193.053 289.608L192.872 289.211L201.158 281.645L193.482 274.174L188.981 278.318L188.717 277.374C188.616 277.011 188.514 276.646 188.412 276.268L188.317 275.916L191.895 272.627L186.251 267.135L186.214 266.954C186.095 266.376 185.981 265.787 185.867 265.191L185.508 263.318L193.526 271.125L200.749 264.481L196.645 260.362L199.46 260.049L202.384 262.977ZM212.551 290.477L220.213 283.14L211.492 274.398L203.514 281.681L212.551 290.477ZM204.388 281.695L212.555 289.643L219.356 283.131L211.473 275.228L204.388 281.695ZM247.587 73.2676L260.312 66.1794L253.489 51.9229C253.743 51.9931 253.999 52.0664 254.259 52.1417C254.437 52.193 254.616 52.2454 254.797 52.2984L261.202 65.6815L272.589 59.336L272.172 58.5765L272.563 58.742C272.731 58.8126 272.897 58.8831 273.064 58.9535C273.267 59.0395 273.47 59.1255 273.671 59.2116C273.672 59.2118 273.672 59.212 273.673 59.2122C273.904 59.3108 274.133 59.4097 274.361 59.509L273.969 59.7325L281.922 74.1578L289.213 70.0526C289.146 70.2576 289.079 70.4626 289.013 70.6673C288.988 70.7433 288.964 70.8193 288.939 70.8952C288.876 71.0902 288.813 71.2848 288.749 71.4786L282.412 75.048L285.458 80.5751C285.392 80.7428 285.326 80.9106 285.26 81.0781C285.165 81.3192 285.07 81.5596 284.973 81.7986L281.526 75.5501L269.239 82.4737L275.669 95.9075L279.842 93.5658C279.695 93.8767 279.547 94.1905 279.398 94.5028C279.295 94.7205 279.191 94.9374 279.087 95.1522L276.108 96.8273L277.171 99.0423C277.092 99.2001 277.012 99.3579 276.932 99.5154C276.818 99.7411 276.703 99.9662 276.589 100.19L275.222 97.3251L262.991 104.198L267.045 112.337L265.636 111.788L262.105 104.7L256.109 108.067L254.89 107.59L261.653 103.789L255.025 90.4817L243.393 97.034L246.992 104.506L245.604 103.962L242.507 97.536L237.039 100.616L235.815 100.139L242.064 96.6163L235.339 82.6678C235.401 82.4783 235.463 82.2894 235.526 82.1009C235.551 82.0254 235.577 81.9499 235.602 81.8745L235.602 81.8737C235.613 81.8426 235.623 81.8115 235.633 81.7805C235.689 81.6148 235.744 81.4494 235.798 81.2839L242.95 96.1184L254.569 89.5703L247.152 74.6726L235.912 80.938C235.965 80.7794 236.017 80.6207 236.068 80.4621C236.108 80.3409 236.147 80.2197 236.186 80.0985C236.248 79.9066 236.31 79.7147 236.371 79.5229L236.372 79.5203L246.701 73.7655L241.351 63.0235C241.406 62.8233 241.461 62.6225 241.515 62.4216C241.527 62.3768 241.539 62.332 241.551 62.2872C241.618 62.0415 241.684 61.7957 241.752 61.551L247.587 73.2676ZM245.908 73.5201L240.711 63.0853L240.772 62.8639C240.84 62.6209 240.906 62.3766 240.972 62.1306L240.973 62.1288C241.039 61.8839 241.105 61.6373 241.173 61.3915L241.59 59.8806L247.844 72.4376L259.527 65.9297L252.379 50.9924L253.65 51.3447C254.08 51.4641 254.519 51.5918 254.966 51.7225L255.223 51.7977L261.468 64.8466L271.776 59.1023L270.813 57.3504L272.405 58.0239C272.536 58.0789 272.666 58.1339 272.796 58.1889C273.402 58.4448 274.007 58.7005 274.601 58.9588L275.7 59.4371L274.78 59.9609L282.155 73.3379L290.263 68.7725L289.783 70.2393C289.718 70.4392 289.652 70.6431 289.585 70.8479C289.497 71.122 289.407 71.3976 289.318 71.6668L289.246 71.8874L283.224 75.279L286.119 80.5319L286.015 80.7966C285.856 81.2044 285.694 81.6162 285.528 82.0245L285.055 83.1901L281.293 76.3701L270.023 82.7209L275.934 95.0709L281.186 92.1234L280.385 93.8219C280.136 94.3491 279.882 94.8874 279.627 95.4136L279.545 95.583L276.892 97.0746L277.84 99.0492L277.707 99.313C277.513 99.6968 277.318 100.082 277.123 100.463L276.571 101.544L274.957 98.1624L263.782 104.441L268.275 113.459L265.203 112.263L261.849 105.532L256.156 108.729L253.492 107.688L260.862 103.545L254.77 91.3143L244.178 97.2806L248.196 105.623L245.165 104.434L242.244 98.3727L237.086 101.278L234.418 100.239L241.279 96.37L234.693 82.7108L234.768 82.4812C234.855 82.2159 234.945 81.9469 235.034 81.6806C235.071 81.5698 235.108 81.4595 235.144 81.3502L235.343 80.7498C235.498 80.2802 235.649 79.8101 235.801 79.3375L235.874 79.1114L245.908 73.5201ZM236.477 81.3101L246.895 75.5027L253.778 89.3275L243.213 95.2817L236.477 81.3101ZM202.315 266.049L195.117 272.672L202.797 280.147L209.903 273.657L202.315 266.049ZM202.332 265.217L194.244 272.66L202.784 280.972L210.771 273.677L202.332 265.217ZM219.892 267.534L213.107 273.731L220.957 281.6L227.388 275.445L219.892 267.534ZM228.234 275.466L219.922 266.694L212.239 273.711L220.947 282.44L228.234 275.466ZM248.835 74.4241L255.711 88.2396L267.127 81.8047L260.485 67.9299L248.835 74.4241ZM248.042 74.1789L255.455 89.0724L267.91 82.0518L260.75 67.0949L248.042 74.1789ZM273.079 60.2262L261.641 66.6013L268.801 81.554L281.036 74.6599L273.079 60.2262ZM272.844 61.0438L262.425 66.8508L269.065 80.7164L280.224 74.429L272.844 61.0438ZM273.999 96.1618L268.085 83.8091L256.702 90.2225L262.795 102.459L273.999 96.1618ZM274.783 96.4096L268.349 82.9716L255.911 89.9796L262.539 103.291L274.783 96.4096Z" fill="#161179"/>
<path d="M289.517 68.7741C293.803 68.2172 295.272 64.2555 295.272 64.2555L223.369 25.9035C223.369 25.9035 220.686 39.3667 231.761 51.1043C240.271 60.1207 285.23 69.3269 289.517 68.7741Z" fill="#161179"/>
<path d="M295.272 64.2554C295.272 64.2554 291.774 57.5807 269.168 42.0289C236.841 19.4523 223.369 25.9034 223.369 25.9034C223.369 25.9034 226.331 32.4304 237.921 41.6281C250.798 51.8468 295.272 64.2554 295.272 64.2554Z" fill="black"/>
<path d="M183.727 283.6C177.482 286.663 173.006 300 173.006 300C173.006 300 234.926 300 238.23 300C238.23 293.937 235.276 290.676 235.276 290.676C235.276 290.676 189.967 280.529 183.727 283.6Z" fill="#161179"/>
<path d="M124.99 192.37C140.703 188.113 158.693 157.511 158.693 157.511L155.706 146.697C155.706 146.697 125.725 169.869 122.813 168.793C119.906 167.713 114.928 149.056 114.928 149.056L92.2246 165.755C92.2246 165.755 109.278 196.627 124.99 192.37Z" fill="#161179"/>
<path d="M119.746 163.852C117.312 157.992 114.928 149.056 114.928 149.056L92.2246 165.755C92.2246 165.755 95.3889 171.472 100.237 177.641C108.451 175.573 115.295 170.911 119.746 163.852Z" fill="#D61E1B"/>
<path d="M114.986 150.178C115.016 150.124 115.041 150.056 115.071 149.997C119.273 146.807 121.678 140.322 115.075 140.006C114.067 136.943 111.7 134.011 107.957 132.897C99.2533 130.323 87.2962 143.63 85.5073 147.659C82.4147 154.638 87.7983 164.004 92.5701 165.798C97.3378 167.591 111.847 156.009 114.986 150.178Z" fill="white"/>
<path d="M95.7824 156.942C91.7446 155.111 90.8544 149.512 90.8417 149.457C90.77 148.947 90.289 148.597 89.7785 148.668C89.268 148.744 88.9136 149.221 88.9937 149.732C89.0275 149.976 89.8418 155.204 93.6685 157.883C94.0778 158.17 94.525 158.427 95.006 158.647C99.993 160.908 111.684 152.381 118.372 143.555C118.342 143.074 118.296 142.584 118.211 142.087C118.224 141.648 118.19 141.196 118.14 140.745C118.085 140.791 118.026 140.833 117.983 140.897C116.87 142.525 115.57 144.137 114.165 145.677C113.684 139.365 108.22 134.8 107.963 134.589C107.571 134.268 106.976 134.319 106.647 134.72C106.318 135.121 106.377 135.711 106.777 136.041C106.836 136.091 112.908 141.158 112.296 147.47C112.296 147.521 112.3 147.576 112.304 147.626C111.068 148.854 109.79 150.014 108.499 151.078C108.203 144.492 102.491 138.977 102.229 138.728C101.854 138.378 101.263 138.391 100.909 138.758C100.55 139.137 100.567 139.728 100.938 140.087C101.001 140.146 107.225 146.154 106.604 152.512C106.604 152.529 106.609 152.546 106.609 152.563C105.136 153.664 103.689 154.613 102.33 155.36C101.955 149.276 96.5544 143.677 96.3139 143.428C95.9469 143.061 95.3562 143.049 94.9849 143.411C94.6179 143.77 94.6094 144.365 94.9723 144.736C95.0271 144.795 100.647 150.622 100.47 156.28C98.4995 157.132 96.8414 157.423 95.7824 156.942Z" fill="black"/>
<path d="M204.486 200.356C230.341 190.825 216.65 164.089 214.911 157.933C203.511 143.436 201.444 138.715 190.702 119.269C190.601 117.695 153.768 143.035 153.768 143.035C153.953 147.508 158.506 172.784 163.404 181.767C167.644 188.07 178.513 209.925 204.486 200.356Z" fill="#D61E1B"/>
<path d="M207.587 148.001C206.98 147.123 206.954 147.098 206.389 146.246C206.389 146.246 186.85 165.705 175.117 195.576C174.788 196.812 178.231 199.69 178.762 199.795C193.576 162.338 207.587 148.001 207.587 148.001Z" fill="#161179"/>
<path d="M160.399 146.947L168.804 158.933L171.584 144.639L160.399 146.947Z" fill="white"/>
<path d="M168.369 189.901L175.879 137.694L171.019 136.863L168.508 156.401L159.137 144.347L155.361 146.545L167.369 162.262L164.327 183.412C165.356 185.197 166.681 187.501 168.369 189.901Z" fill="#161179"/>
<path d="M72.8685 81.6889L72.9191 74.4995C38.5964 60.3822 4.72852 78.1195 4.72852 78.1195C21.7637 86.9502 12.671 105.59 12.671 105.59C12.671 105.59 45.7985 78.706 72.8685 81.6889Z" fill="#161179"/>
<path d="M24.6348 57.5047C24.6348 57.5047 59.0132 60.88 69.8479 77.2334L74.8434 73.3391C68.2616 46.9737 39.8583 38.2105 39.8583 38.2105C41.8624 52.294 24.6348 57.5047 24.6348 57.5047Z" fill="#161179"/>
<path d="M147.084 149.174C187.288 148.204 219.56 134.057 218.206 78.0013C216.814 20.334 183.689 -0.938873 143.485 0.0315302C103.281 1.00193 71.2237 23.8444 72.6118 81.5159C73.9661 137.571 106.88 150.144 147.084 149.174Z" fill="#D61E1B"/>
<path d="M146.691 111.649C207.969 110.168 208.632 101.666 208.379 91.203C208.126 80.7479 207.054 72.2844 145.775 73.7653C81.8128 75.3053 83.8423 83.7435 84.0954 94.2027C84.3486 104.666 82.7242 113.193 146.691 111.649Z" fill="white"/>
<path d="M220.336 86.5579L220.134 64.9221C220.134 64.9221 191.237 56.0493 144.864 57.1716C98.4873 58.2897 69.873 68.5506 69.873 68.5506L70.7169 90.1653C70.7169 90.1653 98.6012 81.3304 145.421 80.2039C192.241 79.0732 220.336 86.5579 220.336 86.5579Z" fill="#161179"/>
<path d="M203.695 38.9617C203.695 38.9617 186.7 -3.25928 128.666 7.19153C180.68 6.43209 203.695 38.9617 203.695 38.9617Z" fill="#D61E1B"/>
<path d="M101.2 212.908C99.69 216.731 99.787 230.426 104.196 234.637C107.959 238.236 112.491 232.451 109.149 223.667L111.913 207.651C111.913 207.651 102.707 209.086 101.2 212.908Z" fill="black"/>
<path d="M181.842 145.698C174.737 157.971 118.871 210.474 118.871 210.474L148.198 228.566C148.198 228.566 194.845 154.676 195.643 146.453C196.44 138.23 188.943 133.42 181.842 145.698Z" fill="#161179"/>
<path d="M139.891 189.88C128.157 201.525 118.871 210.474 118.871 210.474L148.198 228.566C148.198 228.566 153.531 220.292 160.797 208.803C160.417 197.669 151.768 191.201 139.891 189.88Z" fill="#D61E1B"/>
<path d="M126.682 240.793C135.344 243.493 149.022 231.253 149.862 225.46C150.702 219.668 131.509 205.989 123.627 202.825C115.754 199.66 99.0761 214.018 102.443 223.355C105.81 232.688 118.016 238.093 126.682 240.793Z" fill="white"/>
<path d="M120.506 208.305C120.928 207.926 120.962 207.276 120.586 206.858C120.206 206.436 119.557 206.403 119.135 206.778C118.751 207.124 110 215.039 103.676 225.933C104.06 226.595 104.477 227.237 104.946 227.853C111.131 216.79 120.413 208.39 120.506 208.305Z" fill="black"/>
<path d="M129.321 213.381C128.916 212.984 128.27 212.989 127.869 213.389C127.777 213.486 118.478 222.954 112.406 234.447C112.984 234.814 113.571 235.169 114.17 235.506C120.089 224.241 129.236 214.925 129.329 214.832C129.726 214.432 129.726 213.782 129.321 213.381Z" fill="black"/>
<path d="M137.81 219.959C137.379 219.587 136.729 219.638 136.362 220.068C136.286 220.157 128.924 228.777 123.443 239.704C124.11 239.945 124.76 240.168 125.401 240.379C130.747 229.806 137.839 221.49 137.915 221.406C138.286 220.976 138.236 220.326 137.81 219.959Z" fill="black"/>
<path d="M127.452 90.7395C123.024 89.3514 118.18 89.0181 114.218 86.4149C112.804 85.4867 111.01 87.6089 112.433 88.5414C114.684 90.0223 117.1 90.8324 119.579 91.4905C119.242 91.9293 118.992 92.4356 118.91 92.9883C118.785 93.828 118.835 94.8954 119.414 95.5747C119.909 96.1569 120.247 96.5873 120.969 96.8911C121.329 97.0429 121.709 97.1906 122.101 97.2075C122.559 97.2919 123.003 97.2623 123.436 97.1147C123.897 97.0429 124.316 96.8615 124.694 96.5704C125.112 96.2961 125.437 95.9417 125.667 95.5071C125.958 95.1274 126.142 94.6971 126.217 94.2161C126.265 93.8997 126.282 93.5664 126.26 93.2373C127.865 93.7436 129.102 91.2585 127.452 90.7395Z" fill="black"/>
<path d="M174.692 94.0726C179.12 92.6803 183.965 92.347 187.926 89.748C189.34 88.8198 191.135 90.9378 189.711 91.8745C187.46 93.3512 185.044 94.1612 182.566 94.8236C182.903 95.2624 183.153 95.7645 183.234 96.3172C183.359 97.1568 183.309 98.2285 182.731 98.9078C182.235 99.49 181.897 99.9204 181.175 100.224C180.816 100.376 180.435 100.519 180.043 100.541C179.586 100.625 179.141 100.591 178.709 100.448C178.248 100.372 177.828 100.19 177.45 99.9035C177.032 99.625 176.708 99.2706 176.477 98.8402C176.186 98.4605 176.002 98.0302 175.927 97.5492C175.88 97.2285 175.862 96.8994 175.884 96.5703C174.279 97.0724 173.042 94.5916 174.692 94.0726Z" fill="black"/>
</svg>
