<svg width="301" height="300" viewBox="0 0 301 300" fill="none" xmlns="http://www.w3.org/2000/svg">
<path d="M268.001 191.465C271.752 181.424 275.144 171.161 276.444 160.523C278.114 146.868 274.606 133.106 269.668 120.466C264.999 108.503 259.283 95.4974 251.65 85.1093C247.455 79.4034 242.223 74.5432 236.945 69.8164C209.044 44.8387 177.082 28.9583 138.95 30.0532C126.63 30.4004 114.352 32.243 102.433 35.3585C71.2957 43.5212 52.8151 69.4159 37.7199 95.8802C27.3389 114.075 22.1439 135.038 23.8032 155.992C25.6111 178.816 35.9387 199.343 47.9015 218.481C53.5415 227.507 61.6606 234.673 69.8633 241.456C79.5598 249.468 89.7085 257.23 101.37 261.947C109.651 265.294 118.498 267.021 127.348 268.232C138.398 269.745 149.592 270.475 160.716 269.665C207.035 266.309 251.684 235.136 268.001 191.465Z" fill="#D61E1B"/>
<path d="M75.3214 130.577C74.9441 132.015 74.73 133.492 74.3715 134.936C72.6836 141.774 70.7949 148.54 69.3732 155.439C68.7032 158.681 67.8999 161.895 66.8798 165.048C66.014 167.731 65.1267 170.619 63.7021 173.07C60.7252 178.187 54.5192 177.457 49.6027 175.974C44.1092 174.315 36.6208 172.107 38.9078 164.816C39.2392 163.759 39.6408 162.863 40.7589 162.448C42.673 161.734 44.6049 161.663 46.2612 162.841C48.66 164.545 52.2128 164.761 54.2022 162.254C55.2262 160.965 55.806 158.93 56.4555 157.425C57.3102 155.45 58.0631 153.431 58.9317 151.456C60.3048 148.335 61.1025 145.138 61.5882 141.763C61.8134 140.186 61.8676 138.604 62.2255 137.055C62.4319 136.17 62.9967 134.604 61.7238 134.533C60.443 134.654 59.4013 135.622 58.2562 136.131C57.1868 136.613 55.9708 136.779 54.8638 136.319C53.6102 135.794 52.9181 134.754 52.7013 133.448C52.5248 132.386 52.3705 131.009 52.8778 130.007C53.3796 129.022 54.4572 128.552 55.4093 128.104C56.9998 127.363 58.6683 126.815 60.3673 126.384C63.6938 125.548 67.1105 125.183 70.5349 125.1C72.2527 125.067 74.8899 124.492 75.5952 126.594C76.0433 127.916 75.6605 129.282 75.3214 130.577Z" fill="white"/>
<path d="M107.549 148.407C107.523 148.485 107.493 148.557 107.461 148.629C106.813 150.05 103.728 150.189 102.41 150.261C101.351 150.316 99.8638 150.443 98.8891 149.978C97.2499 149.198 98.5405 146.139 98.8387 144.872C99.1883 143.384 99.419 141.923 100.008 140.502C100.589 139.102 101.4 137.78 102.469 136.712C102.594 136.59 102.732 136.519 102.873 136.48C102.996 136.391 103.139 136.33 103.272 136.308C105.802 135.965 106.722 138.798 107.096 140.789C107.294 141.846 107.397 142.919 107.554 143.981C107.739 145.232 108.005 147.135 107.549 148.407ZM118.719 146.482C118.071 142.87 117.185 139.285 116.46 135.672C115.814 132.447 114.441 130.085 111.676 128.253C108.846 126.384 105.696 125.913 102.42 125.41C101.327 125.244 100.267 125.189 99.2929 125.537C97.059 125.487 94.8201 126.693 95.1565 129.365C95.1847 129.587 95.2704 129.802 95.3971 129.979C95.2832 130.212 95.2538 130.428 95.2942 130.616C94.611 131.44 94.0545 132.425 93.6147 133.122C92.163 135.412 90.7274 137.802 89.637 140.286C88.7629 142.272 87.8755 144.286 87.0889 146.311C86.3614 148.175 85.952 150.139 85.4767 152.075C84.9667 154.15 84.2232 156.147 83.7673 158.232C83.3795 160.008 83.1975 161.795 82.9778 163.593C82.6542 166.232 81.9074 168.793 81.6723 171.443C81.493 173.474 80.9741 176.162 83.0636 177.429C84.3388 178.204 85.5769 177.269 86.8239 177.048C89.3515 176.599 92.9574 176.898 94.502 174.364C94.8035 173.866 94.8185 173.263 94.9308 172.71C95.1687 171.537 95.6085 170.409 95.7999 169.231C96.0234 167.853 96.1252 166.464 96.2834 165.081C96.4057 164.008 96.6817 162.929 96.7326 161.856C96.7763 160.943 96.6977 160.041 97.2233 159.223C97.7322 158.421 98.8326 157.901 99.6824 157.558C100.858 157.093 102.205 156.645 103.494 156.584C104.354 156.54 105.456 156.28 106.216 156.744C107.397 157.458 106.896 159.809 106.776 160.932C106.566 162.891 106.132 164.821 105.904 166.78C105.783 167.814 105.687 168.871 105.743 169.916C105.795 170.885 105.597 171.88 105.743 172.849C105.813 173.308 106.106 173.645 106.433 173.972C107.472 175.006 108.87 174.807 110.179 174.569C110.788 174.458 111.403 174.276 112.007 174.193C112.831 174.077 113.701 174.127 114.533 174.044C115.133 173.988 115.75 174.032 116.337 173.889C117.206 173.667 118.112 173.192 118.653 172.45C118.955 172.035 118.994 171.654 119.091 171.172C119.218 170.547 119.451 169.939 119.585 169.308C120.371 165.607 119.929 161.602 119.574 157.856C119.421 156.23 119.31 154.587 119.311 152.944C119.312 151.904 119.363 150.808 119.232 149.785C119.09 148.678 118.916 147.577 118.719 146.482Z" fill="white"/>
<path d="M156.763 141.575C156.746 143.262 156.586 144.955 155.916 146.521C153.814 151.478 147.823 152.473 143.043 152.07C142.639 152.042 142.307 151.633 142.291 151.24C142.141 147.97 142.495 144.706 142.938 141.475C143.231 139.323 143.463 135.91 145.875 134.931C147.303 134.35 148.376 133.946 149.98 133.946C151.496 133.946 152.94 134.079 154.163 134.992C155.009 135.617 156.033 136.546 156.403 137.548C156.873 138.826 156.774 140.242 156.763 141.575ZM162.262 127.816C159.717 126.195 156.591 125.443 153.615 125.133C151.989 124.962 150.395 124.929 148.802 125.327C147.701 125.609 146.65 126.03 145.56 126.317C145.61 125.283 145.488 124.315 144.581 123.59C143.497 122.732 141.726 122.334 140.376 122.273C136.836 122.124 137.002 126.135 135.718 128.364C135.032 129.559 133.671 130.234 133.068 131.473C132.487 132.657 132.045 134.837 132.25 136.142C132.366 136.911 132.98 137.171 133.201 137.791C133.555 138.803 133.052 140.269 132.875 141.276C132.543 143.135 132.089 144.933 131.884 146.808C131.619 149.27 131.165 151.699 130.938 154.15C130.656 157.22 130.551 160.302 130.28 163.366C130.12 165.203 129.976 167.045 129.948 168.893C129.932 170.282 129.838 171.814 130.147 173.175C130.391 174.259 130.092 175.764 131.016 176.577C131.984 177.429 133.516 177.391 134.711 177.103C136.703 176.627 138.883 176.19 139.867 174.265C140.415 173.197 141.179 172.235 141.428 171.034C141.693 169.756 141.848 168.456 141.997 167.156C142.224 165.131 142.379 163.101 142.479 161.065C147.756 162.277 153.195 163.886 158.378 161.375C163.081 159.101 166.499 155.002 168.032 150.045C170.35 142.554 169.454 132.397 162.262 127.816Z" fill="white"/>
<path d="M196.595 150.244C196.49 150.266 196.39 150.288 196.291 150.316C195.317 150.581 194.349 150.504 193.336 150.592C191.876 150.731 190.476 151.018 189.005 150.769C188.474 150.675 188.258 150.205 188.335 149.774C188.811 147.151 189.785 144.778 190.841 142.316C191.699 140.33 192.601 138.2 194.471 136.795C194.504 136.767 194.537 136.745 194.57 136.729C194.648 136.607 194.775 136.502 194.957 136.419C195.35 136.258 195.721 136.186 196.064 136.198C197.259 137.027 198.149 139.478 198.332 140.358C198.692 142.167 198.658 144.015 198.625 145.84C198.603 146.925 199.145 148.64 198.387 149.591C198.022 150.05 197.237 150.117 196.595 150.244ZM209.502 156.711C209.485 155.732 209.452 154.758 209.402 153.79C209.286 151.483 208.65 149.22 208.312 146.936C208.174 145.995 208.124 145.093 207.919 144.164C207.51 142.277 207.361 140.397 206.896 138.505C206.348 136.242 205.491 134.04 204.246 132.054C203.007 130.073 201.159 129.161 199.101 128.226C196.545 127.058 193.093 126.267 190.283 126.82C188.645 127.147 186.969 127.877 186.554 129.504C186.382 130.173 186.515 130.865 186.405 131.534C186.244 132.508 185.647 133.42 185.093 134.234C183.854 136.054 182.261 137.641 180.939 139.406C179.528 141.276 178.626 143.384 177.913 145.564C176.386 150.216 174.809 154.941 173.813 159.726C172.978 163.765 172.48 167.886 171.966 171.974C171.816 173.191 171.069 175.449 172.242 176.4C173.249 177.224 174.212 177.617 175.556 177.695C177.044 177.783 178.283 177.208 179.7 176.904C180.883 176.655 182.244 176.334 182.991 175.393C184.634 173.324 185.365 170.403 185.824 167.925C186.073 166.558 186.205 165.175 186.504 163.82C186.698 162.946 186.598 161.895 186.958 161.07C187.843 159.079 190.36 158.238 192.496 157.95C193.724 157.784 196.02 157.231 196.789 158.498C197.325 159.372 197.314 160.628 197.342 161.613C197.419 164.628 197.004 167.637 196.938 170.652C196.916 171.858 196.739 173.634 197.497 174.691C198.752 176.439 201.22 176.229 203.09 175.753C204.722 175.343 206.664 174.912 207.72 173.507C208.661 172.251 208.312 170.752 208.572 169.313C209.313 165.242 209.573 160.932 209.502 156.711Z" fill="white"/>
<path d="M261.698 127.186C261.615 126.926 261.482 126.671 261.278 126.422C260.293 125.233 258.6 125.012 257.2 125.012C255.402 125.012 253.51 125.111 252.315 126.588C251.104 128.082 250.927 130.063 250.766 131.944C250.573 134.206 249.892 136.397 249.422 138.621C248.797 141.575 247.962 144.502 247.735 147.533C247.674 148.341 247.973 151.063 246.473 150.382C245.107 149.763 244.67 147.611 244.067 146.399C243.718 145.691 243.215 145.044 242.817 144.352C242.319 143.478 241.898 142.527 241.456 141.641C240.421 139.55 239.442 137.498 238.241 135.501C236.742 133 235.138 130.494 233.135 128.386C232.001 127.197 230.424 125.897 228.693 126.201C226.95 126.511 226.701 127.617 225.711 128.934C225.108 129.731 224.676 130.245 224.593 131.258C224.51 132.226 225.042 133.033 225.285 133.957C225.517 134.865 225.722 135.755 225.888 136.651C226.259 138.671 225.125 140.48 224.483 142.305C223.813 144.197 223.609 146.217 222.995 148.125C222.547 149.519 222.027 150.902 221.617 152.313C221.119 154.028 220.544 155.715 219.957 157.403C219.437 158.885 219.122 160.351 218.713 161.862C218.386 163.09 218.088 164.307 217.888 165.568C217.673 166.924 217.18 168.213 216.909 169.557C216.655 170.829 216.516 172.135 216.35 173.424C216.279 174.027 216.102 174.813 216.24 175.427C216.494 176.572 218.265 176.826 219.244 176.931C220.566 177.075 221.844 176.611 223.133 176.472C224.289 176.345 225.362 176.068 226.131 175.106C226.519 174.619 226.685 173.977 226.906 173.391C227.686 171.316 228.184 169.214 228.815 167.101C229.689 164.191 230.474 161.248 231.188 158.293C231.426 157.287 231.642 156.258 231.935 155.267C232.134 154.581 232.333 153.868 232.543 153.182C232.654 152.822 232.798 152.357 233.179 152.18C234.092 151.76 235.232 154.438 235.58 154.985C235.874 155.455 236.029 155.981 236.294 156.468C236.82 157.425 237.594 158.288 238.186 159.184C239.453 161.098 240.521 163.156 241.699 165.126C242.828 167.001 243.917 168.904 244.963 170.829C245.815 172.395 246.883 174.06 248.648 174.68C249.909 175.122 251.237 175.156 252.564 175.156C253.732 175.161 255.032 175.128 255.911 174.237C256.608 173.524 256.946 172.367 257.25 171.46C257.427 170.946 257.659 170.437 257.803 169.917C257.903 169.551 257.947 169.22 257.98 168.832C258.058 167.864 258.44 166.962 258.605 166.011C258.777 165.021 258.843 163.986 258.948 162.99C259.203 160.678 259.386 158.36 259.568 156.042C260.005 150.548 260.132 145.022 260.691 139.534C261.034 136.12 262.019 132.834 261.864 129.388C261.825 128.58 261.914 127.855 261.698 127.186Z" fill="white"/>
<path d="M288.69 21.2372C288.088 20.5982 287.206 20.1811 286.198 20.5454C285.992 20.6246 285.807 20.7197 285.643 20.8359C285.173 21.0101 284.735 21.29 284.307 21.5857C283.161 22.3672 281.963 23.0696 280.785 23.8036C275.663 26.9667 270.699 30.3886 265.587 33.5728C260.27 36.8785 254.91 40.1208 249.666 43.5374C247.343 45.053 245.061 46.6161 242.68 48.0418C241.793 48.5118 240.921 49.0029 240.087 49.5468C238.233 50.603 236.375 51.6591 234.569 52.7997C231.68 54.6269 228.802 56.4804 225.945 58.355C225.602 58.5821 225.254 58.8039 224.905 59.0204C223.907 59.6171 222.925 60.2244 221.953 60.8686C218.827 62.9386 215.764 65.1142 212.628 67.1684C211.772 67.7282 210.901 68.2616 210.024 68.7843C200.667 74.3766 191.399 80.2011 182.037 85.825C180.928 86.4904 179.755 86.9868 178.683 87.7102C176.428 89.1202 174.232 90.6252 171.987 92.0509C169.828 93.4292 167.668 94.8603 165.418 96.0907C165.017 96.3494 164.61 96.6081 164.204 96.8616C163.406 97.3527 162.593 97.8069 161.775 98.2452C161.574 98.3877 161.373 98.5303 161.178 98.6729C159.895 99.6076 158.585 100.225 157.476 101.377C157.144 101.725 156.821 102.095 156.615 102.512C155.765 104.239 158.136 105.601 159.699 104.582C161.574 103.367 163.591 102.443 165.571 101.445C167.869 100.294 170.028 98.9211 172.209 97.5481C176.724 94.7018 181.197 91.8767 185.807 89.1782C190.09 86.6699 194.341 84.1194 198.57 81.5213C202.658 79.013 206.85 76.5522 210.822 73.8696C214.861 71.4141 219.128 69.3018 223.205 66.8833C227.392 64.4014 231.369 61.5815 235.567 59.1048C244.253 53.972 253.056 49.024 261.796 43.9863C266.654 41.1875 271.417 38.2198 276.138 35.194C278.393 33.7524 280.621 32.4797 283.024 31.3127C285.321 30.1932 287.608 29.0262 289.599 27.3839C290.538 26.6024 290.971 25.261 290.565 24.2788C290.343 23.756 290.058 23.2544 289.683 22.8266C289.44 22.2141 289.092 21.6596 288.69 21.2372Z" fill="black"/>
<path d="M273.244 0.457832C272.885 0.167396 272.362 -0.00156505 271.882 0.00371561C270.831 -0.0490911 269.695 0.452542 268.676 1.16015C266.21 2.87109 263.755 4.54508 261.362 6.35635C256.346 10.1532 251.06 13.5803 245.869 17.1236C240.657 20.6881 235.445 24.2631 230.222 27.8117C225.971 30.7002 221.694 33.5571 217.433 36.4298C214.037 38.7163 210.774 41.1877 207.505 43.6484C204.337 46.0406 201.036 48.1634 197.73 50.3602C189.619 55.7517 181.772 61.4285 173.994 67.2794C167.599 72.0954 161.252 76.9114 154.756 81.5953C152.285 83.3749 149.634 85.033 147.833 87.4885C147.485 87.9638 147.163 88.5024 147.157 89.0886C147.142 90.2134 148.219 90.6517 149.185 90.62C150.732 89.68 152.354 88.8457 153.874 87.874C153.927 87.8424 153.98 87.8106 154.028 87.7789C155.95 86.2581 157.972 84.8799 160.069 83.6072C160.628 83.19 161.199 82.7835 161.785 82.398C165.788 79.7418 169.732 77.0539 173.592 74.1865C181.455 68.3356 189.223 62.4001 197.366 56.9452C213.768 45.9508 230.481 35.4475 246.904 24.4901C256.034 18.3962 265.291 12.4978 274.39 6.35635C275.573 5.55897 275.594 3.58927 274.786 2.5437C274.728 2.46977 274.664 2.40638 274.606 2.33773C274.532 2.08426 274.422 1.8361 274.284 1.60375C273.973 1.08624 273.624 0.716585 273.244 0.457832Z" fill="black"/>
<path d="M139.406 241.895C139.433 242.006 139.454 242.117 139.475 242.228C139.734 243.421 140.288 245.016 139.612 246.109C138.915 247.239 138.165 248.169 137.115 248.961C135.552 250.144 133.809 250.962 132.077 251.865C129.732 253.096 127.345 254.284 124.927 255.372C123.406 256.063 121.943 256.956 120.327 257.41C118.854 257.822 117.407 258.271 115.934 258.683C113.489 259.358 110.949 259.591 108.493 260.24C107.316 260.552 106.117 260.742 104.918 260.937C103.825 261.117 102.727 261.429 101.629 261.529C99.474 261.719 97.2773 261.634 95.1545 261.207C93.2481 260.826 91.0144 260.652 89.1556 260.024C86.9958 259.3 86.7952 257.721 86.114 255.794C84.5984 251.527 83.2888 247.234 82.2379 242.804C81.8049 240.976 81.1818 239.266 80.5851 237.491C80.094 236.034 79.8035 234.513 79.3441 233.045C78.8953 231.624 78.3461 230.325 78.0292 228.857C77.7652 227.606 77.3005 226.428 77.0365 225.187C76.8516 224.311 76.6352 223.434 76.6721 222.542C76.6933 222.072 76.8094 221.575 76.9414 221.126C76.9995 220.931 77.0576 220.588 77.2107 220.44C77.4695 220.171 77.3797 220.229 77.6437 220.461C78.1084 220.878 78.42 221.67 78.8477 222.156C79.2755 222.653 79.756 223.107 80.2682 223.513C82.3224 225.161 84.8413 226.069 87.2704 226.999C89.5358 227.865 91.9068 228.651 94.3571 228.842C95.7195 228.947 96.934 228.461 98.2542 228.298C99.0938 228.197 99.9123 228.382 100.762 228.292C103.403 228.007 106.128 227.141 108.657 226.37C113.69 224.834 118.917 223.307 123.496 220.672C125.196 219.695 128.412 218.476 129.336 216.749C130.155 215.217 129.986 214.103 130.176 212.482C130.255 211.811 130.334 210.903 130.783 210.364C131.67 209.292 132.235 211.146 132.388 211.832C132.542 212.535 132.748 213.2 132.832 213.908C133.138 216.416 133.983 218.829 134.517 221.295C135.61 226.317 136.771 231.345 137.949 236.351C138.387 238.209 139.032 240.026 139.406 241.895Z" fill="black"/>
<path d="M118.021 225.472C112.629 227.722 106.894 229.005 101.154 230.014C97.2358 230.711 93.2488 231.45 89.2514 231.44C85.8242 231.434 82.0961 230.901 79.4347 228.551C76.9369 226.354 75.7329 222.748 77.0953 219.621C78.6426 216.094 82.2492 213.749 85.3754 211.753C89.0824 209.393 92.8581 207.259 97.1302 206.15C97.9698 205.934 98.8253 205.855 99.6754 205.717C104.814 204.857 109.915 205.11 115.106 204.704C119.848 204.334 126.042 203.563 129.833 207.201C137.987 215.033 123.882 223.027 118.021 225.472Z" fill="white"/>
<path d="M127.748 216.443C124.954 219.542 120.698 221.639 116.901 223.175C109.582 226.148 101.529 227.68 93.6978 228.567C90.7935 228.894 87.7677 229.079 84.9003 228.393C82.0382 227.701 78.7588 225.388 79.0018 222.04C79.2605 218.497 83.5325 215.951 86.1887 214.235C90.1651 211.669 94.1467 209.277 98.7937 208.279C102.971 207.381 107.095 207.846 111.319 207.587C115.549 207.328 120.175 206.383 124.373 207.344C128.957 208.395 131.154 212.667 127.748 216.443ZM129.833 207.201C126.047 203.558 119.848 204.334 115.106 204.704C109.915 205.11 104.814 204.857 99.6756 205.712C98.8254 205.855 97.9699 205.934 97.1303 206.156C92.8582 207.259 89.0826 209.393 85.3755 211.753C82.2494 213.749 78.6427 216.094 77.0955 219.621C75.733 222.748 76.937 226.354 79.4295 228.551C82.0962 230.901 85.8244 231.434 89.2515 231.445C93.249 231.45 97.2359 230.711 101.159 230.019C106.894 229.005 112.634 227.722 118.021 225.473C123.877 223.028 137.987 215.033 129.833 207.201Z" fill="black"/>
<path d="M97.3198 215.043C95.9415 214.341 94.1725 214.394 92.8576 215.212C90.9935 216.358 90.4232 219.03 91.7961 220.767C92.0866 221.142 92.4299 221.417 92.8048 221.618C93.2061 221.919 93.6655 222.146 94.1724 222.267C96.0788 222.721 97.9376 221.433 98.7666 219.769C99.6327 218.037 99.0888 215.941 97.3198 215.043Z" fill="#E84325"/>
<path d="M106.952 217.636C105.743 216.49 103.816 216.384 102.422 217.219C101.656 217.678 101.08 218.454 100.774 219.315C100.309 220.165 100.188 221.19 100.505 222.14C101.033 223.709 102.633 224.612 104.254 224.406C105.727 224.221 107.042 223.292 107.66 221.934C108.325 220.477 108.146 218.766 106.952 217.636Z" fill="#E84325"/>
<path d="M105.853 212.139C105.611 210.602 104.026 209.514 102.4 209.652C101.476 209.731 100.678 210.248 100.161 210.967C99.1682 211.59 98.4236 212.646 98.4817 213.839C98.5398 214.953 99.2368 215.888 100.272 216.263C100.626 216.39 100.979 216.437 101.339 216.427C101.566 216.474 101.798 216.48 102.041 216.437C102.315 216.506 102.611 216.548 102.923 216.543C104.855 216.516 106.667 214.864 106.16 212.836C106.096 212.582 105.991 212.35 105.853 212.139Z" fill="#E84325"/>
<path d="M114.403 213.707C113.833 211.674 111.483 210.771 109.603 211.558C108.315 212.096 107.285 213.285 107.306 214.747C107.322 215.682 107.75 216.617 108.299 217.361C108.753 217.979 109.466 218.565 110.3 218.423C110.591 218.375 110.87 218.306 111.134 218.222C111.441 218.201 111.747 218.143 112.053 218.032C113.754 217.398 114.905 215.508 114.403 213.707Z" fill="#E84325"/>
<path d="M12.1138 283.157C12.0913 283.252 12.0733 283.347 12.0552 283.441C11.8343 284.46 11.361 285.822 11.938 286.755C12.5331 287.72 13.1732 288.513 14.0703 289.189C15.4046 290.199 16.8923 290.898 18.3709 291.668C20.3724 292.719 22.41 293.733 24.4746 294.662C25.7729 295.252 27.0217 296.014 28.4011 296.402C29.6588 296.753 30.894 297.137 32.1517 297.488C34.2389 298.065 36.4072 298.264 38.5034 298.818C39.5087 299.084 40.532 299.246 41.5553 299.413C42.4884 299.566 43.4261 299.832 44.3637 299.918C46.203 300.08 48.0783 300.008 49.8905 299.643C51.5179 299.318 53.4247 299.17 55.0115 298.633C56.8553 298.016 57.0266 296.668 57.6081 295.022C58.9019 291.38 60.0199 287.715 60.917 283.933C61.2866 282.373 61.8185 280.912 62.3279 279.398C62.7472 278.154 62.9951 276.855 63.3873 275.602C63.7705 274.389 64.2393 273.281 64.5098 272.027C64.7352 270.959 65.1319 269.954 65.3573 268.894C65.5151 268.146 65.6999 267.398 65.6683 266.636C65.6503 266.235 65.5511 265.811 65.4384 265.428C65.3888 265.261 65.3393 264.968 65.2085 264.842C64.9877 264.612 65.0643 264.661 64.8389 264.86C64.4422 265.216 64.1762 265.892 63.8111 266.307C63.4459 266.73 63.0357 267.118 62.5984 267.465C60.8448 268.872 58.6946 269.647 56.6209 270.44C54.687 271.18 52.6629 271.852 50.5712 272.014C49.4082 272.104 48.3713 271.689 47.2443 271.549C46.5276 271.464 45.8288 271.622 45.1031 271.545C42.8491 271.302 40.523 270.562 38.3637 269.904C34.0676 268.592 29.6047 267.289 25.6963 265.04C24.2448 264.206 21.4994 263.165 20.7105 261.691C20.0118 260.383 20.156 259.432 19.9938 258.048C19.9261 257.476 19.8585 256.7 19.4753 256.24C18.718 255.325 18.2356 256.908 18.1049 257.494C17.9742 258.093 17.7983 258.661 17.7262 259.265C17.4648 261.407 16.7435 263.467 16.2882 265.572C15.3551 269.859 14.3633 274.151 13.358 278.424C12.9839 280.011 12.4339 281.562 12.1138 283.157Z" fill="black"/>
<path d="M30.3706 269.138C34.9732 271.058 39.8689 272.154 44.769 273.015C48.1139 273.61 51.5175 274.241 54.93 274.232C57.8557 274.227 61.0382 273.772 63.3102 271.766C65.4425 269.891 66.4703 266.812 65.3073 264.143C63.9864 261.132 60.9075 259.13 58.2388 257.426C55.0742 255.411 51.851 253.59 48.2041 252.643C47.4873 252.458 46.757 252.391 46.0313 252.273C41.645 251.539 37.2903 251.755 32.859 251.408C28.8109 251.092 23.5231 250.434 20.2864 253.54C13.3261 260.226 25.3668 267.051 30.3706 269.138Z" fill="white"/>
<path d="M22.0669 261.429C24.4516 264.075 28.085 265.865 31.3262 267.177C37.5742 269.715 44.4489 271.022 51.1342 271.779C53.6135 272.059 56.1966 272.217 58.6444 271.631C61.0877 271.04 63.8872 269.066 63.6798 266.208C63.4589 263.183 59.812 261.01 57.5445 259.545C54.15 257.354 50.751 255.312 46.784 254.46C43.2182 253.693 39.6975 254.09 36.0911 253.869C32.4802 253.648 28.5313 252.841 24.9474 253.662C21.0345 254.559 19.1593 258.206 22.0669 261.429ZM20.2862 253.54C23.5184 250.43 28.8108 251.092 32.8589 251.408C37.2902 251.755 41.6449 251.539 46.0312 252.269C46.7569 252.391 47.4872 252.458 48.204 252.648C51.8509 253.59 55.0741 255.411 58.2387 257.426C60.9074 259.13 63.9863 261.132 65.3072 264.143C66.4702 266.812 65.4424 269.891 63.3147 271.766C61.0382 273.772 57.8555 274.227 54.9299 274.236C51.5174 274.241 48.1139 273.61 44.7644 273.019C39.8688 272.154 34.9686 271.058 30.3705 269.138C25.3712 267.051 13.326 260.225 20.2862 253.54Z" fill="black"/>
<path d="M48.042 260.235C49.2185 259.635 50.7287 259.68 51.8512 260.379C53.4425 261.357 53.9294 263.638 52.7573 265.121C52.5094 265.441 52.2163 265.676 51.8963 265.847C51.5537 266.104 51.1615 266.298 50.7287 266.401C49.1014 266.789 47.5146 265.689 46.8068 264.269C46.0675 262.791 46.5318 261.001 48.042 260.235Z" fill="#E84325"/>
<path d="M39.8187 262.448C40.851 261.47 42.4964 261.38 43.6865 262.092C44.3402 262.484 44.8316 263.147 45.093 263.881C45.4897 264.607 45.5934 265.482 45.3229 266.293C44.8721 267.632 43.5062 268.403 42.1223 268.227C40.8645 268.069 39.7421 267.276 39.2146 266.117C38.6466 264.873 38.7999 263.413 39.8187 262.448Z" fill="#E84325"/>
<path d="M40.7569 257.755C40.9643 256.443 42.3167 255.515 43.7052 255.632C44.494 255.699 45.1747 256.141 45.6165 256.754C46.464 257.286 47.0996 258.188 47.05 259.207C47.0004 260.158 46.4054 260.956 45.5218 261.276C45.2198 261.384 44.9178 261.425 44.6112 261.416C44.4174 261.456 44.2191 261.461 44.0117 261.425C43.7773 261.483 43.5248 261.519 43.2588 261.515C41.6089 261.492 40.0627 260.081 40.4955 258.35C40.5496 258.134 40.6397 257.935 40.7569 257.755Z" fill="#E84325"/>
<path d="M33.4586 259.094C33.9455 257.358 35.9515 256.588 37.5563 257.259C38.6563 257.719 39.5353 258.733 39.5173 259.982C39.5038 260.78 39.1386 261.578 38.6698 262.213C38.2821 262.741 37.6735 263.241 36.9613 263.12C36.7133 263.079 36.4744 263.02 36.249 262.948C35.9876 262.93 35.7261 262.881 35.4646 262.786C34.0131 262.245 33.0303 260.631 33.4586 259.094Z" fill="#E84325"/>
</svg>
