<svg width="301" height="300" viewBox="0 0 301 300" fill="none" xmlns="http://www.w3.org/2000/svg">
<path d="M259.903 159.848C258.138 171.663 253.361 182.834 247.136 193.746C236.881 211.719 221.723 225.63 203.474 235.282C167.555 254.282 121.229 256.579 87.2857 232.122C70.8539 220.285 58.6092 203.367 50.7123 184.845C42.693 166.037 38.0296 143.962 40.5441 123.51C43.0804 102.914 54.7657 85.6384 70.9594 73.1086C80.9225 65.4093 92.0926 60.0559 104.116 56.4095C115.933 52.8302 127.124 50.368 139.479 50.368C149.172 50.368 158.927 49.7379 168.601 50.1267C181.904 50.6674 194.152 52.1733 206.016 58.1299C216.133 63.2152 225.647 69.6812 233.525 77.8587C242.212 86.8718 246.564 96.9439 251.645 108.124C256.06 117.834 257.838 128.327 259.661 138.756C260.935 146.049 260.917 153.056 259.903 159.848Z" fill="#D61E1B"/>
<mask id="mask0_14_10" style="mask-type:alpha" maskUnits="userSpaceOnUse" x="39" y="50" width="222" height="200">
<path d="M259.903 159.848C258.138 171.663 253.361 182.834 247.136 193.746C236.881 211.719 221.723 225.63 203.474 235.282C167.555 254.282 121.229 256.579 87.2857 232.122C70.8539 220.285 58.6092 203.367 50.7123 184.845C42.693 166.037 38.0296 143.962 40.5441 123.51C43.0804 102.914 54.7657 85.6384 70.9594 73.1086C80.9225 65.4093 92.0926 60.0559 104.116 56.4095C115.933 52.8302 127.124 50.368 139.479 50.368C149.172 50.368 158.927 49.7379 168.601 50.1267C181.904 50.6674 194.152 52.1733 206.016 58.1299C216.133 63.2152 225.647 69.6812 233.525 77.8587C242.212 86.8718 246.564 96.9439 251.645 108.124C256.06 117.834 257.838 128.327 259.661 138.756C260.935 146.049 260.917 153.056 259.903 159.848Z" fill="#E84325"/>
</mask>
<g mask="url(#mask0_14_10)">
<path d="M150.423 39.0366C152.147 75.8684 154.668 113.002 149.859 149.551C148.626 158.926 149.164 168.389 147.603 177.76C146.401 184.968 144.944 192.21 144.782 199.512C144.609 207.295 141.683 214.978 141.397 222.705C141.278 225.906 140.151 230.839 138.576 233.675C133.337 243.105 133.459 255.796 130.113 265.833" stroke="white" stroke-width="6" stroke-linecap="round"/>
<path d="M33.1211 138.43C34.9807 140.083 37.985 140.226 40.2961 140.702C51.1216 142.931 61.9677 144.723 72.9422 146.024C97.9089 148.983 122.7 153.441 147.801 155.172C176.162 157.128 204.296 159.955 232.705 159.955C241.812 159.955 251.09 158.879 259.97 158.879C262.513 158.879 269.869 160.008 270.971 157.803" stroke="white" stroke-width="6" stroke-linecap="round"/>
<path d="M236.213 64.0032C229.232 75.6976 221.244 87.0795 212.607 97.6359C207.954 103.323 202.547 108.575 198.583 114.77C191.391 126.007 183.774 137.297 181.64 150.814C178.576 170.217 176.008 188.241 182.274 207.038C184.069 212.423 188.229 218.196 192.237 222.204C195.442 225.409 198.105 231.05 201.946 233.309C208.657 237.257 215.285 245.62 223.649 245.62" stroke="white" stroke-width="6" stroke-linecap="round"/>
<path d="M88.0114 234.382C88.0114 229.783 92.1769 224.594 94.3633 220.682C98.4083 213.443 101.864 206.32 105.386 198.886C109.727 189.722 111.621 178.29 112.671 168.31C114.514 150.81 111.524 140.564 103.704 124.532C99.555 116.027 96.3431 106.849 92.4951 98.191C90.7974 94.3713 88.4222 90.7477 86.3301 86.9819C82.8686 80.7513 80.165 71.0799 80.165 64.0032" stroke="white" stroke-width="6" stroke-linecap="round"/>
</g>
</svg>
